<svg version="1.1" id="Layer_1" xmlns="http://www.w3.org/2000/svg" xmlns:xlink="http://www.w3.org/1999/xlink" x="0px" y="0px"
	  viewBox="445 593 492 72" enable-background="new 0 0 1376 768" xml:space="preserve">

<path fill="#090A09" opacity="1.000000" stroke="none" 
	d="
M441.423157,337.999878 
	C441.454926,281.680603 441.573975,225.861191 441.465790,170.042191 
	C441.426208,149.620850 446.515839,130.848450 458.455780,114.226768 
	C476.100311,89.663780 500.234802,75.762863 530.426331,75.614326 
	C636.064880,75.094589 741.708374,75.130577 847.348022,75.519577 
	C896.253845,75.699669 935.957520,115.993904 936.264771,165.123123 
	C936.648315,226.439224 936.455261,287.759064 936.473083,349.077271 
	C936.485596,391.899719 936.330322,434.722443 936.442505,477.544525 
	C936.541199,515.206177 919.898804,542.901367 887.103943,560.933655 
	C874.636047,567.789185 860.946228,570.822510 846.785278,570.834656 
	C741.310974,570.925049 635.836304,570.991760 530.362244,570.804321 
	C487.360199,570.727905 448.563721,536.843994 443.024963,494.350677 
	C441.355438,481.541779 441.640839,468.438629 441.575653,455.467499 
	C441.379700,416.479034 441.452454,377.489197 441.423157,337.999878 
M667.499756,557.384827 
	C672.500061,557.385498 677.500305,557.391968 682.500610,557.386047 
	C738.497314,557.319824 794.500732,557.751343 850.488464,557.009155 
	C888.121887,556.510254 921.546143,523.283020 922.822510,485.608826 
	C923.764404,457.808197 923.218079,429.955017 923.223999,402.125244 
	C923.240662,324.462250 923.008606,246.798645 923.256104,169.136505 
	C923.395386,125.433655 888.988464,88.479645 842.466248,88.732506 
	C739.140503,89.294121 635.809509,88.842415 532.481384,89.098015 
	C524.624817,89.117447 516.512390,90.594139 508.966156,92.873894 
	C476.999084,102.531288 454.989105,133.125107 454.901550,168.850281 
	C454.648224,272.177460 454.877747,375.505737 454.777405,478.833435 
	C454.733307,524.254028 493.021423,558.308960 534.009460,557.521301 
	C578.157410,556.672974 622.334961,557.364746 667.499756,557.384827 
z"/>
<path fill="#050505" opacity="1.000000" stroke="none" 
	d="
M905.701904,616.663940 
	C906.559021,614.813599 907.274536,613.317505 907.949707,611.803406 
	C914.352356,597.443787 914.350342,597.442871 930.811340,599.614868 
	C930.811340,619.465454 930.811340,639.374878 930.811340,659.632690 
	C926.027344,659.632690 920.994873,659.632690 915.567993,659.632690 
	C915.567993,648.725464 915.567993,637.997375 915.567993,627.269348 
	C915.241943,627.183228 914.915894,627.097168 914.589844,627.011047 
	C912.080688,632.947083 909.260132,638.775574 907.160950,644.853210 
	C905.484192,649.707825 902.436584,651.532471 897.764709,650.482300 
	C896.015930,650.089233 893.831421,648.776489 893.086548,647.269714 
	C889.859436,640.741150 887.090942,633.986023 883.392944,627.386658 
	C883.392944,638.110229 883.392944,648.833862 883.392944,659.766357 
	C878.109253,659.766357 873.358643,659.766357 868.300781,659.766357 
	C868.300781,639.696289 868.300781,619.803101 868.300781,599.208862 
	C873.170349,599.208862 878.129517,598.921265 883.017334,599.385498 
	C884.468689,599.523315 886.220215,601.531982 886.979004,603.097839 
	C891.242920,611.898071 895.245544,620.824829 899.770386,630.648560 
	C901.885742,625.649475 903.713684,621.329651 905.701904,616.663940 
z"/>
<path fill="#060606" opacity="1.000000" stroke="none" 
	d="
M809.927979,616.189087 
	C809.902039,610.432617 809.902039,605.153259 809.902039,599.671265 
	C822.229431,599.671265 834.627747,599.350586 846.996094,599.819275 
	C852.416138,600.024658 855.678162,604.137512 856.098938,609.473145 
	C856.580566,615.579834 857.036133,621.864563 856.081543,627.844971 
	C855.471863,631.664795 852.285156,635.073303 849.567871,639.879272 
	C852.090454,645.200928 855.390564,652.163025 859.102661,659.994141 
	C853.598999,659.994141 848.712402,660.156616 843.853455,659.862366 
	C842.833679,659.800598 841.589905,658.221375 841.009033,657.061218 
	C838.857910,652.764404 836.609558,648.466492 835.026733,643.948669 
	C833.358093,639.185669 830.499390,637.927979 825.663452,639.525391 
	C825.663452,645.987610 825.663452,652.555542 825.663452,659.567627 
	C820.373169,659.567627 815.332886,659.567627 809.953857,659.567627 
	C809.953857,645.454163 809.953857,631.060181 809.927979,616.189087 
M840.873108,617.778870 
	C840.942993,615.365112 840.992371,612.761658 837.744995,612.572510 
	C833.836914,612.344849 829.905518,612.518677 825.814575,612.518677 
	C825.814575,617.198730 825.814575,621.454163 825.814575,626.182678 
	C828.417114,626.182678 830.874207,626.176514 833.331238,626.183899 
	C840.909546,626.206604 840.909546,626.208557 840.873108,617.778870 
z"/>
<path fill="#050505" opacity="1.000000" stroke="none" 
	d="
M507.023987,629.000000 
	C507.023773,618.878418 507.023773,609.256775 507.023773,599.331299 
	C518.934753,599.331299 530.877563,599.024353 542.793884,599.453186 
	C549.329651,599.688354 553.309875,604.198486 553.764099,610.916565 
	C554.122620,616.220337 554.641846,621.726562 553.608948,626.843994 
	C552.773254,630.984192 549.731628,634.679138 546.831116,640.151550 
	C549.211975,645.127380 552.545532,652.094116 556.323669,659.990173 
	C550.911560,659.990173 546.043579,660.159424 541.205383,659.855469 
	C540.166504,659.790222 538.919617,658.176514 538.311218,656.996338 
	C536.183899,652.869934 533.896790,648.755066 532.422302,644.382263 
	C530.855042,639.734436 528.338745,637.825134 523.039856,639.620117 
	C523.039856,645.919617 523.039856,652.663696 523.039856,659.699402 
	C517.446045,659.699402 512.368042,659.699402 507.024231,659.699402 
	C507.024231,649.678162 507.024231,639.589050 507.023987,629.000000 
M538.023926,621.374268 
	C538.012634,619.542542 538.375793,617.598145 537.869385,615.915405 
	C537.476929,614.611084 536.084839,612.777405 534.985901,612.665649 
	C531.090698,612.269531 527.130554,612.511230 523.151367,612.511230 
	C523.151367,617.237000 523.151367,621.506042 523.151367,626.220215 
	C526.985840,626.220215 530.608643,626.178406 534.229980,626.233826 
	C536.967896,626.275818 538.250854,625.038574 538.023926,621.374268 
z"/>
<path fill="#060707" opacity="1.000000" stroke="none" 
	d="
M495.647766,635.981934 
	C495.511078,640.634888 495.627991,644.819092 495.181091,648.942200 
	C494.446106,655.723206 490.488464,659.612671 483.784424,659.865173 
	C475.804657,660.165649 467.799683,660.199341 459.818542,659.944702 
	C452.461670,659.709900 447.959351,655.497253 447.770630,647.990723 
	C447.452972,635.356934 447.581451,622.699280 447.971283,610.065552 
	C448.171356,603.580872 452.759399,599.361267 459.336853,599.127930 
	C467.317169,598.844788 475.318787,598.839722 483.301971,599.055298 
	C490.539551,599.250732 494.805664,603.282654 495.193420,610.527710 
	C495.637848,618.831360 495.521088,627.165039 495.647766,635.981934 
M477.207306,612.733704 
	C473.878876,612.715088 470.539642,612.856262 467.225189,612.631592 
	C464.098724,612.419556 463.082825,613.802429 463.130951,616.709717 
	C463.224609,622.367371 463.177124,628.027588 463.175934,633.686707 
	C463.173248,646.391418 463.169861,646.283875 475.741028,646.239014 
	C479.004456,646.227356 480.153198,645.267700 480.080505,641.967529 
	C479.901031,633.815735 480.118195,625.655334 479.936615,617.503662 
	C479.902008,615.949036 478.768921,614.418945 477.207306,612.733704 
z"/>
<path fill="#060606" opacity="1.000000" stroke="none" 
	d="
M670.168945,602.917847 
	C670.145447,621.990479 670.145447,640.636169 670.145447,659.649658 
	C664.903564,659.649658 659.838562,659.649658 654.238525,659.649658 
	C654.238525,651.625916 654.238525,643.582153 654.238525,635.310913 
	C648.283386,635.310913 642.852661,635.310913 636.876831,635.310913 
	C636.876831,643.355896 636.876831,651.401428 636.876831,659.724365 
	C631.289490,659.724365 626.242432,659.724365 620.968994,659.724365 
	C620.968994,639.592163 620.968994,619.676819 620.968994,599.430359 
	C626.164062,599.430359 631.205933,599.430359 636.643433,599.430359 
	C636.643433,606.775757 636.643433,614.021973 636.643433,621.548218 
	C642.596558,621.548218 648.160339,621.548218 654.146606,621.548218 
	C654.146606,614.139160 654.146606,606.881836 654.146606,599.114502 
	C658.993408,599.114502 663.449585,598.939575 667.868591,599.267090 
	C668.718201,599.330078 669.421570,601.365417 670.168945,602.917847 
z"/>
<path fill="#060707" opacity="1.000000" stroke="none" 
	d="
M595.927490,621.947144 
	C594.492432,612.148193 594.494873,612.251282 584.384827,612.490784 
	C581.213196,612.565979 579.848267,613.598389 579.895569,616.864990 
	C580.016296,625.188965 580.005005,633.516296 579.916077,641.840942 
	C579.879761,645.239075 581.133484,646.897705 584.683655,646.312561 
	C585.171997,646.231995 585.680603,646.270569 586.179932,646.260376 
	C594.980591,646.080322 594.980591,646.080505 595.760498,637.245972 
	C600.764160,637.245972 605.812866,637.245972 611.918335,637.245972 
	C611.377808,642.302002 611.310913,647.441040 610.174133,652.331360 
	C608.964661,657.534241 604.545166,659.634460 599.569580,659.813538 
	C591.919434,660.088806 584.247437,660.134521 576.596375,659.899109 
	C568.906372,659.662537 564.510437,655.320801 564.274292,647.038086 
	C563.937500,635.228271 563.939514,623.385010 564.434570,611.582825 
	C564.815796,602.491577 569.078003,599.077637 578.336975,599.033569 
	C584.664429,599.003479 590.992920,598.918579 597.319275,598.994324 
	C606.434937,599.103394 610.761963,603.237305 611.218323,612.273132 
	C611.383972,615.552734 611.244995,618.847717 611.244995,622.178833 
	C605.886719,622.178833 601.094177,622.178833 595.927490,621.947144 
z"/>
<path fill="#070707" opacity="1.000000" stroke="none" 
	d="
M775.000854,612.607544 
	C773.659058,615.464722 772.817932,618.319214 771.760437,621.907837 
	C779.804688,621.907837 786.697754,621.907837 793.874512,621.907837 
	C793.874512,626.428711 793.874512,630.472229 793.874512,634.935547 
	C786.980408,634.935547 780.230835,634.935547 773.149780,634.935547 
	C773.149780,638.740540 773.149780,642.143494 773.149780,646.033875 
	C781.941040,646.033875 790.809204,646.033875 799.944336,646.033875 
	C799.944336,650.762817 799.944336,655.010193 799.944336,659.649536 
	C785.407898,659.649536 771.168823,659.649536 756.572021,659.649536 
	C756.572021,639.791260 756.572021,619.782837 756.572021,599.435181 
	C771.034912,599.435181 785.087585,599.435181 799.493958,599.435181 
	C799.493958,603.483704 799.493958,607.556213 799.493958,612.604858 
	C791.598267,612.604858 783.549927,612.604858 775.000854,612.607544 
z"/>
<path fill="#090A09" opacity="1.000000" stroke="none" 
	d="
M716.087769,613.124146 
	C711.019653,612.892334 706.408997,612.892334 701.543945,612.892334 
	C701.543945,608.232117 701.543945,604.132996 701.543945,599.589172 
	C717.040894,599.589172 732.542847,599.589172 748.364502,599.589172 
	C748.364502,603.819397 748.364502,608.052673 748.364502,612.741943 
	C743.199585,612.741943 738.147034,612.741943 732.687500,612.741943 
	C732.687500,628.583130 732.687500,643.978455 732.687500,659.707031 
	C727.224365,659.707031 722.181030,659.707031 716.545227,659.707031 
	C716.545227,644.233948 716.545227,628.794922 716.087769,613.124146 
z"/>
<path fill="#1A1A1A" opacity="1.000000" stroke="none" 
	d="
M861.580811,679.379028 
	C863.261475,682.829407 864.734253,685.962891 866.151489,688.978271 
	C871.160156,685.805298 868.431763,675.269836 878.559814,676.664856 
	C878.559814,684.457275 878.559814,691.858704 878.559814,699.720276 
	C877.102844,699.828491 875.547791,699.944031 873.502075,700.095947 
	C873.502075,695.938232 873.502075,692.173035 873.502075,688.407776 
	C873.120789,688.291809 872.739441,688.175842 872.358154,688.059875 
	C871.409485,690.199768 870.591614,692.412537 869.455872,694.448059 
	C868.904907,695.435669 867.667175,696.821594 866.903076,696.726013 
	C865.753113,696.582092 864.425903,695.502991 863.747864,694.451477 
	C862.524048,692.553467 861.724731,690.381714 859.989136,688.376770 
	C859.989136,691.989563 859.989136,695.602417 859.989136,699.662903 
	C857.941772,699.784058 856.402466,699.875183 854.538513,699.985474 
	C854.538513,692.133545 854.538513,684.713806 854.538513,677.018005 
	C857.226196,676.053467 859.826233,675.501465 861.580811,679.379028 
z"/>
<path fill="#0D0D0D" opacity="1.000000" stroke="none" 
	d="
M583.284668,688.660522 
	C585.089600,686.023804 586.852295,683.204346 588.132385,680.180542 
	C589.536926,676.863037 591.693848,675.618408 595.594727,676.640991 
	C595.594727,684.199280 595.594727,691.891113 595.594727,699.865112 
	C594.234863,699.865112 592.824768,699.865112 591.053467,699.865112 
	C591.053467,695.585327 591.053467,691.490723 591.053467,687.396057 
	C590.727539,687.287720 590.401672,687.179321 590.075745,687.070984 
	C588.919250,689.465637 587.895203,691.938416 586.548462,694.220886 
	C585.906250,695.309326 584.588684,696.802734 583.689148,696.729797 
	C582.600281,696.641479 581.366272,695.254028 580.668091,694.133972 
	C579.497009,692.255005 578.699951,690.142883 576.932983,688.310547 
	C576.932983,692.011475 576.932983,695.712463 576.932983,699.675537 
	C575.109131,699.675537 573.701721,699.675537 571.949829,699.675537 
	C571.949829,692.124451 571.949829,684.582764 571.949829,677.025574 
	C576.014709,675.349426 578.127808,676.897217 579.420288,680.747803 
	C580.310242,683.399536 581.805237,685.848267 583.284668,688.660522 
z"/>
<path fill="#090A09" opacity="1.000000" stroke="none" 
	d="
M616.826294,685.758545 
	C616.827881,682.639160 616.827881,679.980225 616.827881,676.848083 
	C626.650208,675.143738 625.419617,685.654846 630.882141,689.214600 
	C630.882141,684.927856 630.882141,680.899414 630.882141,676.585327 
	C632.717957,676.585327 634.104797,676.585327 635.953369,676.585327 
	C635.953369,684.282104 635.953369,691.859619 635.953369,699.976746 
	C626.432068,700.537354 628.034119,689.632507 622.039612,686.276489 
	C622.039612,690.664185 622.039612,694.898987 622.039612,699.618774 
	C620.228638,699.770081 618.689880,699.898621 616.824768,700.054504 
	C616.824768,695.158447 616.824768,690.688721 616.826294,685.758545 
z"/>
<path fill="#131313" opacity="1.000000" stroke="none" 
	d="
M564.447205,699.856689 
	C560.737793,700.824829 558.928650,699.412292 557.622253,696.290527 
	C556.775452,694.267090 554.931213,692.660950 553.533813,690.867798 
	C553.052734,691.168579 552.571655,691.469299 552.090515,691.770081 
	C551.904724,694.352478 551.718933,696.934937 551.518188,699.724365 
	C549.736328,699.724365 548.186401,699.724365 546.431824,699.724365 
	C546.431824,692.015015 546.431824,684.592957 546.431824,676.730164 
	C551.191406,676.730164 555.837646,676.437988 560.405273,676.908752 
	C561.770630,677.049500 563.967712,679.330750 563.959167,680.619263 
	C563.936218,684.079224 562.403564,687.542725 562.469971,690.985535 
	C562.526245,693.900757 563.979370,696.789001 564.447205,699.856689 
M551.580444,682.659241 
	C551.682312,684.055359 551.784180,685.451538 552.001831,688.435242 
	C554.906860,686.922485 558.154785,686.311646 558.833374,684.651001 
	C560.211975,681.276794 557.808228,680.285706 551.580444,682.659241 
z"/>
<path fill="#131313" opacity="1.000000" stroke="none" 
	d="
M727.260681,697.492310 
	C727.253723,690.419861 727.253723,683.798096 727.253723,676.744324 
	C732.254456,676.744324 736.863464,676.493042 741.412842,676.903137 
	C742.714355,677.020447 744.895752,679.089844 744.857361,680.201294 
	C744.732849,683.799500 743.676392,687.356262 743.172363,690.956055 
	C743.012390,692.098694 743.265564,693.397339 743.671814,694.498230 
	C744.284485,696.158203 745.197632,697.707275 745.996704,699.331116 
	C742.286255,701.042908 740.325134,699.922485 738.822510,696.515808 
	C737.842651,694.294434 737.562683,690.532654 733.038574,691.679443 
	C732.894653,694.253113 732.750427,696.830994 732.528076,700.807373 
	C730.311401,699.600403 728.789490,698.771729 727.260681,697.492310 
M736.362061,687.076355 
	C741.833191,687.361877 739.862793,684.010986 739.541443,681.413757 
	C737.090149,681.413757 735.012024,681.413757 732.961426,681.413757 
	C732.704956,686.191711 732.704956,686.191711 736.362061,687.076355 
z"/>
<path fill="#0D0D0D" opacity="1.000000" stroke="none" 
	d="
M815.317566,697.837891 
	C813.498718,695.263916 813.947571,690.818665 808.871033,691.924438 
	C808.704773,694.529236 808.540466,697.103943 808.366699,699.826111 
	C806.631042,699.826111 805.171509,699.826111 803.415771,699.826111 
	C803.415771,692.176758 803.415771,684.637756 803.415771,676.781250 
	C808.159302,676.781250 812.803772,676.492126 817.370422,676.960815 
	C818.707031,677.098022 820.872437,679.419800 820.836975,680.689331 
	C820.740845,684.129517 819.138550,687.543152 819.143555,690.965820 
	C819.147766,693.873474 820.559387,696.779053 821.696289,700.967896 
	C819.209900,699.844177 817.368042,699.011719 815.317566,697.837891 
M815.980530,685.351501 
	C815.667603,680.637146 814.509705,680.107422 808.152405,681.927063 
	C808.230774,683.458923 808.311584,685.039368 808.431702,687.388672 
	C811.078430,686.937500 813.359192,686.548767 815.980530,685.351501 
z"/>
<path fill="#131313" opacity="1.000000" stroke="none" 
	d="
M833.459961,678.422363 
	C837.848022,675.062500 840.599609,675.677124 842.139038,680.048889 
	C844.393066,686.449829 846.592285,692.870117 848.910400,699.557861 
	C845.668335,700.153076 843.084534,700.848633 841.727844,696.699707 
	C840.837158,693.975891 834.159302,693.953308 833.188049,696.676392 
	C831.852783,700.420471 829.588501,700.378540 826.358765,699.428345 
	C828.678406,692.492004 830.974792,685.625183 833.459961,678.422363 
z"/>
<path fill="#0D0D0D" opacity="1.000000" stroke="none" 
	d="
M752.858398,679.151367 
	C755.447266,676.802551 766.770325,675.562195 769.023254,677.331848 
	C770.025146,678.118896 770.756531,679.807190 770.823853,681.126587 
	C771.060303,685.759460 770.955139,690.409668 770.978027,695.053345 
	C770.978882,695.218933 770.987793,695.390625 770.950317,695.549438 
	C769.299133,702.552856 763.602966,699.404480 759.499512,699.966858 
	C756.049622,700.439697 752.394043,700.017517 752.252930,695.406494 
	C752.091309,690.127380 752.525513,684.830017 752.858398,679.151367 
M765.628052,690.389343 
	C765.884766,680.213013 765.705566,680.012451 757.702332,681.675354 
	C757.702332,686.046753 757.702332,690.438416 757.702332,695.439087 
	C760.816895,694.116028 765.965393,698.609985 765.628052,690.389343 
z"/>
<path fill="#090A09" opacity="1.000000" stroke="none" 
	d="
M777.855347,691.810913 
	C777.864319,690.175293 777.879517,689.010498 777.887390,687.845703 
	C777.962341,676.692993 781.167358,674.063049 792.347961,676.896973 
	C794.234680,677.375244 795.447754,680.511841 796.972107,682.420166 
	C796.514709,683.041870 796.057312,683.663513 795.599976,684.285217 
	C791.763916,683.052612 787.927856,681.819946 783.384766,680.360168 
	C783.384766,685.865234 783.384766,690.240845 783.384766,695.186340 
	C785.313660,695.186340 786.953979,695.392273 788.504150,695.107544 
	C789.405334,694.942017 790.161865,693.989258 790.983398,693.390625 
	C790.259827,692.621826 789.492554,691.888977 788.823669,691.075195 
	C787.991455,690.062622 787.240417,688.983215 785.893738,687.183533 
	C789.939880,687.183533 792.699036,687.183533 796.841919,687.183533 
	C795.969421,691.363281 796.278137,697.471863 794.130127,698.513428 
	C790.272400,700.383789 784.874207,699.657471 780.269897,698.986206 
	C779.163696,698.824890 778.646301,694.624573 777.855347,691.810913 
z"/>
<path fill="#131313" opacity="1.000000" stroke="none" 
	d="
M532.799316,690.093994 
	C527.938782,689.421875 528.594055,692.108276 528.844849,694.182678 
	C532.239685,697.237793 538.975159,691.557434 540.116516,699.747498 
	C534.237671,699.747498 529.010864,699.747498 523.460083,699.747498 
	C523.460083,692.157654 523.460083,684.764954 523.460083,676.421570 
	C528.229614,676.421570 532.995605,676.225952 537.721313,676.575012 
	C538.753784,676.651306 539.642578,678.672180 541.520874,680.885559 
	C536.380127,680.885559 532.962402,680.885559 529.054016,680.885559 
	C528.947632,682.609436 528.864746,683.952881 528.768921,685.504883 
	C531.679382,685.637268 534.133972,685.748962 536.633911,685.862671 
	C538.594055,689.876770 536.409180,690.379333 532.799316,690.093994 
z"/>
<path fill="#0D0D0D" opacity="1.000000" stroke="none" 
	d="
M647.759216,681.706909 
	C648.419067,678.307434 649.423401,676.408630 653.297424,676.433655 
	C657.125183,676.458435 657.381836,678.726257 658.198242,681.265198 
	C660.125916,687.260132 662.223755,693.200317 664.436462,699.702332 
	C662.470337,699.843872 660.780457,699.965576 658.729919,700.113159 
	C658.149353,694.000366 653.912292,694.558594 649.325928,695.073547 
	C648.028198,697.905273 647.000977,701.881836 641.877075,699.390503 
	C643.784485,693.665527 645.714111,687.873901 647.759216,681.706909 
M650.795471,688.049927 
	C652.117310,688.886841 653.439087,689.723816 654.760925,690.560730 
	C655.026306,690.147095 655.291687,689.733459 655.557068,689.319824 
	C654.851562,687.098816 654.146118,684.877869 653.027527,681.356262 
	C652.007507,684.307129 651.493225,685.795105 650.795471,688.049927 
z"/>
<path fill="#090A09" opacity="1.000000" stroke="none" 
	d="
M720.705688,682.390625 
	C720.868347,691.730408 720.599121,692.002808 711.568726,692.054871 
	C710.594360,692.060486 709.619995,692.055664 708.286377,692.055664 
	C708.095276,694.725342 707.922607,697.137146 707.733093,699.784912 
	C706.125488,699.784912 704.703857,699.784912 703.021729,699.784912 
	C703.021729,692.140320 703.021729,684.565857 703.021729,676.639526 
	C707.163208,676.639526 711.113342,676.682617 715.062073,676.626892 
	C718.723389,676.575256 720.724426,678.172424 720.705688,682.390625 
M709.598022,687.870056 
	C711.373657,687.870056 713.149353,687.870056 714.799866,687.870056 
	C716.186584,680.857300 715.509949,680.284973 707.686279,681.686951 
	C708.031128,683.695435 708.379333,685.723633 709.598022,687.870056 
z"/>
<path fill="#131313" opacity="1.000000" stroke="none" 
	d="
M511.498718,681.489624 
	C511.060028,687.583862 511.060028,693.481323 511.060028,699.756897 
	C508.734680,699.861023 507.182526,699.930542 505.268463,700.016296 
	C505.268463,693.716797 505.268463,687.802673 505.268463,681.570129 
	C503.057190,681.346741 501.148010,681.153870 498.971008,680.933960 
	C498.912323,679.640686 498.855255,678.383545 498.784332,676.819946 
	C504.888336,676.819946 510.761169,676.819946 516.855286,676.819946 
	C516.855286,678.148682 516.855286,679.412292 516.855286,680.999023 
	C515.143494,681.101318 513.540466,681.197083 511.498718,681.489624 
z"/>
<path fill="#0D0D0D" opacity="1.000000" stroke="none" 
	d="
M669.865356,678.439758 
	C671.242065,677.210266 672.600647,676.438110 674.955322,675.099792 
	C674.955322,682.417725 674.955322,688.466858 674.955322,695.317200 
	C678.100403,695.317200 680.709778,695.118103 683.258545,695.424011 
	C684.163330,695.532654 684.920715,696.869629 685.745361,697.645874 
	C684.918091,698.429077 684.125366,699.841492 683.257690,699.889160 
	C678.987671,700.123413 674.697754,699.995544 669.847290,699.995544 
	C669.847290,692.713196 669.847290,685.805115 669.865356,678.439758 
z"/>
<path fill="#1A1A1A" opacity="1.000000" stroke="none" 
	d="
M608.938293,684.123291 
	C608.938232,689.570312 608.938232,694.537781 608.938232,699.758972 
	C607.036865,699.758972 605.468933,699.758972 603.638428,699.758972 
	C603.638428,692.186707 603.638428,684.758240 603.638428,676.804138 
	C605.234436,676.679810 606.773987,676.559937 608.938354,676.391357 
	C608.938354,679.116455 608.938354,681.380127 608.938293,684.123291 
z"/>
<path fill="#FBFCFB" opacity="1.000000" stroke="none" 
	d="
M666.999695,557.384705 
	C622.334961,557.364746 578.157410,556.672974 534.009460,557.521301 
	C493.021423,558.308960 454.733307,524.254028 454.777405,478.833435 
	C454.877747,375.505737 454.648224,272.177460 454.901550,168.850281 
	C454.989105,133.125107 476.999084,102.531288 508.966156,92.873894 
	C516.512390,90.594139 524.624817,89.117447 532.481384,89.098015 
	C635.809509,88.842415 739.140503,89.294121 842.466248,88.732506 
	C888.988464,88.479645 923.395386,125.433655 923.256104,169.136505 
	C923.008606,246.798645 923.240662,324.462250 923.223999,402.125244 
	C923.218079,429.955017 923.764404,457.808197 922.822510,485.608826 
	C921.546143,523.283020 888.121887,556.510254 850.488464,557.009155 
	C794.500732,557.751343 738.497314,557.319824 682.500610,557.386047 
	C677.500305,557.391968 672.500061,557.385498 666.999695,557.384705 
M477.836853,265.499939 
	C477.846985,335.820740 478.166046,406.143463 477.731995,476.461548 
	C477.526794,509.698578 504.460968,534.826843 535.574707,534.580811 
	C638.717163,533.765442 741.870972,534.031433 845.018372,534.423401 
	C873.491211,534.531616 900.114685,510.856171 900.160828,479.568420 
	C900.313660,375.919952 900.346130,272.270782 900.114014,168.622574 
	C900.042114,136.540710 874.674500,111.901268 842.643494,111.888496 
	C740.661011,111.847816 638.677429,112.141853 536.696838,111.701828 
	C505.647400,111.567856 477.614868,136.125687 477.837738,171.016342 
	C478.036743,202.176239 477.852142,233.338608 477.836853,265.499939 
z"/>
<path fill="#F8F8F6" opacity="1.000000" stroke="none" 
	d="
M840.877930,618.224854 
	C840.909546,626.208557 840.909546,626.206604 833.331238,626.183899 
	C830.874207,626.176514 828.417114,626.182678 825.814575,626.182678 
	C825.814575,621.454163 825.814575,617.198730 825.814575,612.518677 
	C829.905518,612.518677 833.836914,612.344849 837.744995,612.572510 
	C840.992371,612.761658 840.942993,615.365112 840.877930,618.224854 
z"/>
<path fill="#F8F8F6" opacity="1.000000" stroke="none" 
	d="
M538.025024,621.831848 
	C538.250854,625.038574 536.967896,626.275818 534.229980,626.233826 
	C530.608643,626.178406 526.985840,626.220215 523.151367,626.220215 
	C523.151367,621.506042 523.151367,617.237000 523.151367,612.511230 
	C527.130554,612.511230 531.090698,612.269531 534.985901,612.665649 
	C536.084839,612.777405 537.476929,614.611084 537.869385,615.915405 
	C538.375793,617.598145 538.012634,619.542542 538.025024,621.831848 
z"/>
<path fill="#F9F9F9" opacity="1.000000" stroke="none" 
	d="
M477.674988,612.805603 
	C478.768921,614.418945 479.902008,615.949036 479.936615,617.503662 
	C480.118195,625.655334 479.901031,633.815735 480.080505,641.967529 
	C480.153198,645.267700 479.004456,646.227356 475.741028,646.239014 
	C463.169861,646.283875 463.173248,646.391418 463.175934,633.686707 
	C463.177124,628.027588 463.224609,622.367371 463.130951,616.709717 
	C463.082825,613.802429 464.098724,612.419556 467.225189,612.631592 
	C470.539642,612.856262 473.878876,612.715088 477.674988,612.805603 
z"/>
<path fill="#F1F2F1" opacity="1.000000" stroke="none" 
	d="
M551.688293,682.199585 
	C557.808228,680.285706 560.211975,681.276794 558.833374,684.651001 
	C558.154785,686.311646 554.906860,686.922485 552.001831,688.435242 
	C551.784180,685.451538 551.682312,684.055359 551.688293,682.199585 
z"/>
<path fill="#F1F2F1" opacity="1.000000" stroke="none" 
	d="
M735.898010,687.078735 
	C732.704956,686.191711 732.704956,686.191711 732.961426,681.413757 
	C735.012024,681.413757 737.090149,681.413757 739.541443,681.413757 
	C739.862793,684.010986 741.833191,687.361877 735.898010,687.078735 
z"/>
<path fill="#F1F2F1" opacity="1.000000" stroke="none" 
	d="
M815.810242,685.755737 
	C813.359192,686.548767 811.078430,686.937500 808.431702,687.388672 
	C808.311584,685.039368 808.230774,683.458923 808.152405,681.927063 
	C814.509705,680.107422 815.667603,680.637146 815.810242,685.755737 
z"/>
<path fill="#E7E7E7" opacity="1.000000" stroke="none" 
	d="
M765.641357,690.852417 
	C765.965393,698.609985 760.816895,694.116028 757.702332,695.439087 
	C757.702332,690.438416 757.702332,686.046753 757.702332,681.675354 
	C765.705566,680.012451 765.884766,680.213013 765.641357,690.852417 
z"/>
<path fill="#E7E7E7" opacity="1.000000" stroke="none" 
	d="
M650.887207,687.666504 
	C651.493225,685.795105 652.007507,684.307129 653.027527,681.356262 
	C654.146118,684.877869 654.851562,687.098816 655.557068,689.319824 
	C655.291687,689.733459 655.026306,690.147095 654.760925,690.560730 
	C653.439087,689.723816 652.117310,688.886841 650.887207,687.666504 
z"/>
<path fill="#E7E7E7" opacity="1.000000" stroke="none" 
	d="
M709.162842,687.810913 
	C708.379333,685.723633 708.031128,683.695435 707.686279,681.686951 
	C715.509949,680.284973 716.186584,680.857300 714.799866,687.870056 
	C713.149353,687.870056 711.373657,687.870056 709.162842,687.810913 
z"/>
<path fill="#020202" opacity="1.000000" stroke="none" 
	d="
M477.836823,264.999908 
	C477.852142,233.338608 478.036743,202.176239 477.837738,171.016342 
	C477.614868,136.125687 505.647400,111.567856 536.696838,111.701828 
	C638.677429,112.141853 740.661011,111.847816 842.643494,111.888496 
	C874.674500,111.901268 900.042114,136.540710 900.114014,168.622574 
	C900.346130,272.270782 900.313660,375.919952 900.160828,479.568420 
	C900.114685,510.856171 873.491211,534.531616 845.018372,534.423401 
	C741.870972,534.031433 638.717163,533.765442 535.574707,534.580811 
	C504.460968,534.826843 477.526794,509.698578 477.731995,476.461548 
	C478.166046,406.143463 477.846985,335.820740 477.836823,264.999908 
M848.614929,487.374359 
	C839.919250,491.056427 831.314514,494.978607 822.491028,498.323456 
	C817.784851,500.107513 812.496277,500.716858 808.073547,497.587311 
	C801.031494,492.604309 794.217957,487.275635 787.558044,481.789368 
	C785.594604,480.171997 784.475037,477.530243 783.362854,475.926270 
	C775.569214,482.781830 769.203186,488.371307 762.849792,493.975159 
	C760.148560,496.357727 757.322388,496.843781 754.272949,494.648468 
	C746.878296,489.325043 739.483398,484.002075 732.390564,478.896301 
	C727.894653,482.838165 722.917908,487.222443 717.916748,491.578583 
	C715.002563,494.116882 712.034729,494.874023 708.533936,492.384735 
	C701.974487,487.720581 695.268188,483.263123 688.939575,478.936188 
	C683.063293,483.124176 676.569397,487.656830 670.185913,492.340027 
	C666.723694,494.880127 663.747253,494.079987 660.777832,491.580719 
	C655.595825,487.219299 650.391724,482.884247 645.719360,478.975342 
	C638.581543,484.174530 631.123535,489.670166 623.590637,495.061127 
	C620.783203,497.070221 618.180237,496.640686 615.565979,494.254059 
	C609.130371,488.378754 602.531006,482.682892 596.093750,476.999847 
	C590.792725,481.644409 585.307129,486.488770 579.779846,491.285034 
	C570.893188,498.996246 561.217285,501.773987 549.954102,496.492737 
	C543.435913,493.436432 536.677979,490.891541 528.964539,487.672729 
	C539.479858,502.165405 553.079956,507.792725 569.770630,508.143188 
	C565.215515,510.957947 560.660339,513.772705 555.279663,517.097595 
	C571.351257,517.037781 583.758728,510.754517 594.701965,500.548004 
	C598.483704,504.610016 601.952087,508.335449 605.420471,512.060852 
	C605.637024,511.847961 605.853577,511.635071 606.070068,511.422180 
	C604.680481,506.362610 603.290833,501.303040 601.901245,496.243469 
	C602.276245,496.078522 602.651306,495.913574 603.026367,495.748596 
	C608.660339,502.076233 614.294373,508.403870 620.420227,515.283936 
	C629.536316,507.653961 637.901978,500.652130 646.143433,493.754242 
	C651.527100,497.964600 656.712036,501.861755 661.707581,505.988190 
	C664.507507,508.300964 666.897461,508.633057 670.148071,506.600037 
	C676.472473,502.644623 683.084900,499.149750 689.223755,495.665192 
	C695.763611,499.364624 702.344849,502.904510 708.721252,506.781494 
	C711.397522,508.408752 713.476196,508.421875 715.895325,506.510529 
	C721.331726,502.215302 726.868835,498.047607 732.220337,493.939026 
	C740.721008,500.972504 749.105286,507.909576 757.712830,515.031494 
	C761.518677,510.922821 764.669006,507.723846 767.580688,504.320740 
	C770.410217,501.013885 772.995178,497.497711 775.687561,494.073456 
	C776.012634,494.228699 776.337708,494.383911 776.662720,494.539154 
	C775.454346,499.268097 774.245972,503.997040 773.037598,508.725983 
	C773.390442,509.104248 773.743347,509.482513 774.096252,509.860779 
	C777.324768,506.980286 780.553284,504.099792 783.844482,501.163361 
	C803.163086,514.690063 812.635986,518.502258 821.989929,516.519836 
	C817.428711,513.681580 812.766235,510.780365 808.103821,507.879120 
	C825.524353,508.194611 839.168640,502.116302 849.495728,487.787903 
	C849.404907,487.596252 849.314148,487.404602 849.223328,487.212952 
	C849.112122,487.275299 848.898621,487.358185 848.906433,487.396667 
	C848.952942,487.628784 849.050232,487.850708 848.614929,487.374359 
M798.704407,273.500183 
	C798.723572,261.167572 798.970093,248.830093 798.705627,236.503571 
	C798.356140,220.218643 794.593140,204.870575 784.835327,191.429840 
	C772.872681,174.951996 755.585144,168.298508 736.330200,166.162170 
	C725.779297,164.991531 715.047058,165.185028 704.398254,165.224594 
	C683.580444,165.301910 662.680115,164.635483 641.969604,166.260864 
	C619.967712,167.987579 601.249146,177.203888 589.573914,197.309341 
	C582.256470,209.910324 579.632996,223.698776 579.602539,238.051636 
	C579.515991,278.883057 579.528931,319.714722 579.557861,360.546265 
	C579.560791,364.706421 579.769043,368.882416 580.168396,373.023407 
	C581.632324,388.200745 586.941467,401.636993 597.651733,411.965179 
	C604.490784,401.470245 611.246582,391.103088 617.990723,380.753784 
	C623.646240,396.881531 629.059814,411.840637 634.094482,426.926239 
	C635.951416,432.490387 640.543823,431.699707 644.573730,432.625244 
	C648.193970,433.456665 648.952026,430.433990 650.524292,428.442810 
	C655.798584,421.763245 661.093689,415.100006 666.975220,407.680817 
	C668.303467,411.590668 669.000916,414.141663 670.023560,416.554840 
	C672.475159,422.339874 673.630615,430.153442 678.038818,433.204834 
	C682.261780,436.127960 689.937195,433.903076 696.074219,434.282074 
	C699.700317,434.506042 701.524597,432.943024 702.777527,429.781647 
	C705.526123,422.846710 708.466187,415.987610 711.771057,408.031036 
	C717.367310,415.288971 722.513550,422.187988 727.947632,428.852264 
	C729.301453,430.512573 731.646912,432.535706 733.427246,432.436188 
	C737.301636,432.219666 741.981567,432.787720 743.847168,427.518494 
	C746.118225,421.103851 748.970154,414.889404 751.114990,408.436829 
	C754.089844,399.487549 756.640381,390.397247 759.833252,379.844757 
	C767.169800,391.130707 773.963196,401.581055 781.142578,412.625244 
	C784.157410,408.250641 787.446838,404.073914 790.091858,399.522705 
	C796.819153,387.947388 798.625854,375.094177 798.688599,361.996338 
	C798.828247,332.831604 798.714661,303.665649 798.704407,273.500183 
M847.508118,471.995300 
	C848.444214,470.628632 849.570923,469.354706 850.287476,467.881256 
	C859.460205,449.018646 865.680420,429.317169 866.907837,408.241364 
	C868.614136,378.941589 861.611023,351.514587 848.898376,325.350189 
	C847.236206,321.929260 845.211853,318.684326 843.099365,314.899353 
	C839.486389,339.837128 836.013611,363.806915 832.618713,387.239319 
	C831.733765,385.404907 830.528748,382.907257 829.018311,379.776306 
	C828.266663,381.311310 827.955261,381.883148 827.699402,382.478851 
	C818.516174,403.864746 806.859314,423.667328 790.665527,440.593292 
	C789.814453,441.482819 788.973877,442.828918 788.943970,443.983551 
	C788.777893,450.390869 788.864380,456.804749 788.864380,463.216370 
	C789.346375,463.450439 789.828369,463.684479 790.310364,463.918549 
	C798.795532,454.042450 807.280701,444.166351 816.527527,433.403748 
	C815.973816,435.391113 815.865784,436.371429 815.446228,437.192596 
	C811.669922,444.583252 808.051636,452.065826 803.979675,459.291870 
	C795.512573,474.317200 795.410217,474.259491 810.022888,483.733704 
	C817.171631,488.368530 819.853088,488.037445 824.870361,480.961029 
	C833.937866,468.171906 841.395264,454.479492 846.907654,439.770203 
	C848.176331,436.384674 849.363159,432.968475 850.587585,429.566376 
	C850.521851,446.163086 846.272888,461.715637 840.609070,477.443237 
	C842.755066,475.814087 844.901001,474.184937 847.508118,471.995300 
M567.889587,440.577484 
	C574.395447,448.873291 580.980652,457.093536 589.798035,464.324219 
	C589.798035,457.879852 590.103699,452.363312 589.662354,446.907166 
	C589.457703,444.377045 588.267029,441.610168 586.716248,439.561676 
	C580.801941,431.748932 573.917603,424.601898 568.600037,416.423157 
	C561.848389,406.038635 556.268250,394.892395 549.946533,383.654266 
	C549.101746,388.380798 548.283386,392.959808 547.464966,397.538788 
	C546.475281,396.096588 546.170593,394.578461 546.037964,393.045441 
	C544.895325,379.841766 545.137878,366.516907 541.042847,353.614807 
	C539.148743,347.647125 538.539490,341.239960 537.671387,334.987091 
	C536.773499,328.519165 536.267944,321.996796 535.502319,314.649689 
	C534.590271,315.919067 534.183838,316.392792 533.877563,316.924286 
	C520.003052,340.999390 512.034607,366.841217 511.319397,394.682526 
	C510.652802,420.631592 516.404053,445.229370 528.597656,468.159088 
	C530.520447,471.774719 534.133362,474.491608 536.964783,477.624054 
	C537.426575,477.279968 537.888306,476.935883 538.350098,476.591797 
	C532.386475,462.312775 528.521484,447.567627 527.823669,432.076599 
	C529.357117,434.293335 530.146851,436.725006 531.048157,439.114624 
	C536.888367,454.598419 544.458252,469.161469 554.651123,482.241425 
	C559.163452,488.031891 561.500610,488.282959 567.734497,484.131439 
	C571.601562,481.556152 575.172363,478.540222 578.972839,475.859131 
	C582.249939,473.547211 582.014343,471.367676 580.041504,468.016754 
	C573.982666,457.725739 568.376465,447.167572 562.650146,436.682800 
	C562.215271,435.886536 562.218506,434.850983 562.018127,433.926666 
	C562.309021,433.821320 562.599915,433.715942 562.890808,433.610565 
	C564.408325,435.744598 565.925903,437.878662 567.889587,440.577484 
M610.162476,464.532776 
	C610.380249,462.105255 610.597961,459.677765 610.846741,456.904480 
	C613.848450,465.751038 616.682800,474.104431 619.707336,483.018250 
	C628.009827,478.854248 634.211914,473.898590 638.697144,467.256317 
	C640.843079,464.078339 640.815613,460.005432 637.970459,456.562225 
	C627.882446,444.353912 621.379639,430.278778 616.623413,415.302979 
	C615.918945,413.084778 615.122131,410.895935 614.067139,407.814697 
	C605.530823,425.210663 601.018372,442.254639 602.616699,460.691498 
	C603.110474,466.387360 606.477966,469.868530 610.769653,473.835510 
	C610.555237,470.538086 610.387634,467.960480 610.162476,464.532776 
M765.660034,461.248718 
	C765.991455,460.021484 766.322937,458.794250 766.654358,457.567017 
	C767.069153,457.606628 767.483948,457.646240 767.898743,457.685883 
	C767.898743,462.817230 767.898743,467.948578 767.898743,473.788574 
	C773.137390,469.433624 775.736511,464.884857 775.958679,459.045288 
	C776.589905,442.455231 773.349976,426.693146 765.929443,411.823151 
	C765.396973,410.756256 764.573853,409.834442 763.612244,408.451782 
	C758.468628,426.307922 751.693665,442.522949 740.585144,456.846619 
	C738.708191,459.266876 738.656372,464.990875 740.226990,467.819366 
	C743.964355,474.549927 750.583557,478.716736 758.432861,483.161224 
	C760.881897,475.681580 763.123169,468.836517 765.660034,461.248718 
M652.275940,454.910553 
	C651.655640,461.426025 649.849182,468.266907 657.122620,472.838318 
	C657.372803,469.548157 657.607239,466.465332 657.844849,463.340515 
	C660.487732,469.633331 662.988281,475.587189 666.118225,483.039673 
	C671.729248,477.648712 676.339294,473.831390 680.085327,469.299866 
	C681.459595,467.637268 681.910583,463.644836 680.864380,461.807648 
	C674.999268,451.508301 668.547913,441.542877 661.552917,430.264160 
	C658.423889,438.478516 655.450806,446.283356 652.275940,454.910553 
M723.094421,444.468719 
	C720.659607,439.981903 718.224731,435.495087 716.022400,431.436737 
	C709.840088,441.271576 704.194519,450.574463 698.194275,459.642609 
	C695.719543,463.382721 695.267944,466.742462 698.447205,469.920166 
	C702.500977,473.971924 706.854309,477.723907 712.160461,482.599182 
	C715.176208,475.363190 717.688965,469.334167 720.201721,463.305115 
	C720.426270,463.344788 720.650879,463.384460 720.875427,463.424133 
	C720.875427,466.597443 720.875427,469.770782 720.875427,472.944122 
	C721.472595,473.123627 722.069702,473.303131 722.666870,473.482635 
	C724.013794,470.048584 726.555298,466.575684 726.445251,463.188965 
	C726.249756,457.170929 724.447388,451.205139 723.094421,444.468719 
M856.745117,504.390594 
	C860.659180,499.903625 865.062866,495.739929 868.314026,490.815338 
	C870.458496,487.567078 872.162537,483.139191 871.900574,479.390625 
	C871.460876,473.098846 869.297058,466.927582 867.858643,460.705597 
	C867.460632,460.623596 867.062561,460.541565 866.664490,460.459534 
	C865.067932,465.064270 861.766785,469.842224 862.213745,474.239258 
	C863.292053,484.847443 860.060913,493.835510 855.155762,502.679443 
	C854.623901,503.638397 854.340881,504.735321 853.494446,506.929443 
	C855.156860,505.666901 855.677185,505.271759 856.745117,504.390594 
M518.184387,501.340912 
	C519.925781,502.980988 521.667114,504.621063 523.408508,506.261139 
	C523.171509,503.492035 522.051208,501.373383 521.057312,499.197021 
	C518.160522,492.853668 514.609436,486.408722 516.176941,479.263275 
	C517.811707,471.811554 513.562988,466.763580 510.424438,459.729950 
	C509.321228,464.247772 508.861694,467.666534 507.652618,470.795654 
	C503.878448,480.563232 507.375610,488.554108 513.341125,496.028107 
	C514.684082,497.710754 516.238525,499.224609 518.184387,501.340912 
z"/>
<path fill="#FDFDFD" opacity="1.000000" stroke="none" 
	d="
M798.704346,274.000183 
	C798.714661,303.665649 798.828247,332.831604 798.688599,361.996338 
	C798.625854,375.094177 796.819153,387.947388 790.091858,399.522705 
	C787.446838,404.073914 784.157410,408.250641 781.142578,412.625244 
	C773.963196,401.581055 767.169800,391.130707 759.833252,379.844757 
	C756.640381,390.397247 754.089844,399.487549 751.114990,408.436829 
	C748.970154,414.889404 746.118225,421.103851 743.847168,427.518494 
	C741.981567,432.787720 737.301636,432.219666 733.427246,432.436188 
	C731.646912,432.535706 729.301453,430.512573 727.947632,428.852264 
	C722.513550,422.187988 717.367310,415.288971 711.771057,408.031036 
	C708.466187,415.987610 705.526123,422.846710 702.777527,429.781647 
	C701.524597,432.943024 699.700317,434.506042 696.074219,434.282074 
	C689.937195,433.903076 682.261780,436.127960 678.038818,433.204834 
	C673.630615,430.153442 672.475159,422.339874 670.023560,416.554840 
	C669.000916,414.141663 668.303467,411.590668 666.975220,407.680817 
	C661.093689,415.100006 655.798584,421.763245 650.524292,428.442810 
	C648.952026,430.433990 648.193970,433.456665 644.573730,432.625244 
	C640.543823,431.699707 635.951416,432.490387 634.094482,426.926239 
	C629.059814,411.840637 623.646240,396.881531 617.990723,380.753784 
	C611.246582,391.103088 604.490784,401.470245 597.651733,411.965179 
	C586.941467,401.636993 581.632324,388.200745 580.168396,373.023407 
	C579.769043,368.882416 579.560791,364.706421 579.557861,360.546265 
	C579.528931,319.714722 579.515991,278.883057 579.602539,238.051636 
	C579.632996,223.698776 582.256470,209.910324 589.573914,197.309341 
	C601.249146,177.203888 619.967712,167.987579 641.969604,166.260864 
	C662.680115,164.635483 683.580444,165.301910 704.398254,165.224594 
	C715.047058,165.185028 725.779297,164.991531 736.330200,166.162170 
	C755.585144,168.298508 772.872681,174.951996 784.835327,191.429840 
	C794.593140,204.870575 798.356140,220.218643 798.705627,236.503571 
	C798.970093,248.830093 798.723572,261.167572 798.704346,274.000183 
M656.851501,219.028244 
	C644.868225,222.015518 639.094055,229.629196 638.994202,244.296234 
	C638.742493,281.257385 638.846802,318.221069 638.851501,355.183716 
	C638.851746,357.166321 639.112244,359.174500 639.481262,361.127350 
	C641.991272,374.408142 647.531433,380.701050 660.920532,381.223328 
	C680.827698,381.999817 700.811462,381.532501 720.735352,380.826202 
	C729.572815,380.512878 736.019226,373.959900 738.026611,365.258301 
	C738.916870,361.398895 739.482788,357.370697 739.493835,353.417145 
	C739.590454,318.785767 739.547852,284.153931 739.486389,249.522324 
	C739.479309,245.534012 739.369446,241.511337 738.848267,237.565201 
	C737.463867,227.081711 730.929199,219.389053 720.484558,219.021606 
	C699.580200,218.286133 678.628845,218.887375 656.851501,219.028244 
z"/>
<path fill="#FBFBFB" opacity="1.000000" stroke="none" 
	d="
M847.277588,472.275543 
	C844.901001,474.184937 842.755066,475.814087 840.609070,477.443237 
	C846.272888,461.715637 850.521851,446.163086 850.587585,429.566376 
	C849.363159,432.968475 848.176331,436.384674 846.907654,439.770203 
	C841.395264,454.479492 833.937866,468.171906 824.870361,480.961029 
	C819.853088,488.037445 817.171631,488.368530 810.022888,483.733704 
	C795.410217,474.259491 795.512573,474.317200 803.979675,459.291870 
	C808.051636,452.065826 811.669922,444.583252 815.446228,437.192596 
	C815.865784,436.371429 815.973816,435.391113 816.527527,433.403748 
	C807.280701,444.166351 798.795532,454.042450 790.310364,463.918549 
	C789.828369,463.684479 789.346375,463.450439 788.864380,463.216370 
	C788.864380,456.804749 788.777893,450.390869 788.943970,443.983551 
	C788.973877,442.828918 789.814453,441.482819 790.665527,440.593292 
	C806.859314,423.667328 818.516174,403.864746 827.699402,382.478851 
	C827.955261,381.883148 828.266663,381.311310 829.018311,379.776306 
	C830.528748,382.907257 831.733765,385.404907 832.618713,387.239319 
	C836.013611,363.806915 839.486389,339.837128 843.099365,314.899353 
	C845.211853,318.684326 847.236206,321.929260 848.898376,325.350189 
	C861.611023,351.514587 868.614136,378.941589 866.907837,408.241364 
	C865.680420,429.317169 859.460205,449.018646 850.287476,467.881256 
	C849.570923,469.354706 848.444214,470.628632 847.277588,472.275543 
z"/>
<path fill="#FBFBFB" opacity="1.000000" stroke="none" 
	d="
M567.666504,440.295105 
	C565.925903,437.878662 564.408325,435.744598 562.890808,433.610565 
	C562.599915,433.715942 562.309021,433.821320 562.018127,433.926666 
	C562.218506,434.850983 562.215271,435.886536 562.650146,436.682800 
	C568.376465,447.167572 573.982666,457.725739 580.041504,468.016754 
	C582.014343,471.367676 582.249939,473.547211 578.972839,475.859131 
	C575.172363,478.540222 571.601562,481.556152 567.734497,484.131439 
	C561.500610,488.282959 559.163452,488.031891 554.651123,482.241425 
	C544.458252,469.161469 536.888367,454.598419 531.048157,439.114624 
	C530.146851,436.725006 529.357117,434.293335 527.823669,432.076599 
	C528.521484,447.567627 532.386475,462.312775 538.350098,476.591797 
	C537.888306,476.935883 537.426575,477.279968 536.964783,477.624054 
	C534.133362,474.491608 530.520447,471.774719 528.597656,468.159088 
	C516.404053,445.229370 510.652802,420.631592 511.319397,394.682526 
	C512.034607,366.841217 520.003052,340.999390 533.877563,316.924286 
	C534.183838,316.392792 534.590271,315.919067 535.502319,314.649689 
	C536.267944,321.996796 536.773499,328.519165 537.671387,334.987091 
	C538.539490,341.239960 539.148743,347.647125 541.042847,353.614807 
	C545.137878,366.516907 544.895325,379.841766 546.037964,393.045441 
	C546.170593,394.578461 546.475281,396.096588 547.464966,397.538788 
	C548.283386,392.959808 549.101746,388.380798 549.946533,383.654266 
	C556.268250,394.892395 561.848389,406.038635 568.600037,416.423157 
	C573.917603,424.601898 580.801941,431.748932 586.716248,439.561676 
	C588.267029,441.610168 589.457703,444.377045 589.662354,446.907166 
	C590.103699,452.363312 589.798035,457.879852 589.798035,464.324219 
	C580.980652,457.093536 574.395447,448.873291 567.666504,440.295105 
M561.045166,432.546661 
	C561.271973,432.629486 561.498718,432.712341 561.725525,432.795166 
	C561.657532,432.570892 561.589478,432.346649 561.045166,432.546661 
z"/>
<path fill="#F8F8F6" opacity="1.000000" stroke="none" 
	d="
M848.989319,487.993866 
	C839.168640,502.116302 825.524353,508.194611 808.103821,507.879120 
	C812.766235,510.780365 817.428711,513.681580 821.989929,516.519836 
	C812.635986,518.502258 803.163086,514.690063 783.844482,501.163361 
	C780.553284,504.099792 777.324768,506.980286 774.096252,509.860779 
	C773.743347,509.482513 773.390442,509.104248 773.037598,508.725983 
	C774.245972,503.997040 775.454346,499.268097 776.662720,494.539154 
	C776.337708,494.383911 776.012634,494.228699 775.687561,494.073456 
	C772.995178,497.497711 770.410217,501.013885 767.580688,504.320740 
	C764.669006,507.723846 761.518677,510.922821 757.712830,515.031494 
	C749.105286,507.909576 740.721008,500.972504 732.220337,493.939026 
	C726.868835,498.047607 721.331726,502.215302 715.895325,506.510529 
	C713.476196,508.421875 711.397522,508.408752 708.721252,506.781494 
	C702.344849,502.904510 695.763611,499.364624 689.223755,495.665192 
	C683.084900,499.149750 676.472473,502.644623 670.148071,506.600037 
	C666.897461,508.633057 664.507507,508.300964 661.707581,505.988190 
	C656.712036,501.861755 651.527100,497.964600 646.143433,493.754242 
	C637.901978,500.652130 629.536316,507.653961 620.420227,515.283936 
	C614.294373,508.403870 608.660339,502.076233 603.026367,495.748596 
	C602.651306,495.913574 602.276245,496.078522 601.901245,496.243469 
	C603.290833,501.303040 604.680481,506.362610 606.070068,511.422180 
	C605.853577,511.635071 605.637024,511.847961 605.420471,512.060852 
	C601.952087,508.335449 598.483704,504.610016 594.701965,500.548004 
	C583.758728,510.754517 571.351257,517.037781 555.279663,517.097595 
	C560.660339,513.772705 565.215515,510.957947 569.770630,508.143188 
	C553.079956,507.792725 539.479858,502.165405 528.964539,487.672729 
	C536.677979,490.891541 543.435913,493.436432 549.954102,496.492737 
	C561.217285,501.773987 570.893188,498.996246 579.779846,491.285034 
	C585.307129,486.488770 590.792725,481.644409 596.093750,476.999847 
	C602.531006,482.682892 609.130371,488.378754 615.565979,494.254059 
	C618.180237,496.640686 620.783203,497.070221 623.590637,495.061127 
	C631.123535,489.670166 638.581543,484.174530 645.719360,478.975342 
	C650.391724,482.884247 655.595825,487.219299 660.777832,491.580719 
	C663.747253,494.079987 666.723694,494.880127 670.185913,492.340027 
	C676.569397,487.656830 683.063293,483.124176 688.939575,478.936188 
	C695.268188,483.263123 701.974487,487.720581 708.533936,492.384735 
	C712.034729,494.874023 715.002563,494.116882 717.916748,491.578583 
	C722.917908,487.222443 727.894653,482.838165 732.390564,478.896301 
	C739.483398,484.002075 746.878296,489.325043 754.272949,494.648468 
	C757.322388,496.843781 760.148560,496.357727 762.849792,493.975159 
	C769.203186,488.371307 775.569214,482.781830 783.362854,475.926270 
	C784.475037,477.530243 785.594604,480.171997 787.558044,481.789368 
	C794.217957,487.275635 801.031494,492.604309 808.073547,497.587311 
	C812.496277,500.716858 817.784851,500.107513 822.491028,498.323456 
	C831.314514,494.978607 839.919250,491.056427 848.836060,487.707001 
	C849.057251,488.039642 848.989319,487.993866 848.989319,487.993866 
z"/>
<path fill="#F9F9F9" opacity="1.000000" stroke="none" 
	d="
M610.191223,464.957825 
	C610.387634,467.960480 610.555237,470.538086 610.769653,473.835510 
	C606.477966,469.868530 603.110474,466.387360 602.616699,460.691498 
	C601.018372,442.254639 605.530823,425.210663 614.067139,407.814697 
	C615.122131,410.895935 615.918945,413.084778 616.623413,415.302979 
	C621.379639,430.278778 627.882446,444.353912 637.970459,456.562225 
	C640.815613,460.005432 640.843079,464.078339 638.697144,467.256317 
	C634.211914,473.898590 628.009827,478.854248 619.707336,483.018250 
	C616.682800,474.104431 613.848450,465.751038 610.846741,456.904480 
	C610.597961,459.677765 610.380249,462.105255 610.191223,464.957825 
z"/>
<path fill="#F9F9F9" opacity="1.000000" stroke="none" 
	d="
M765.512207,461.620056 
	C763.123169,468.836517 760.881897,475.681580 758.432861,483.161224 
	C750.583557,478.716736 743.964355,474.549927 740.226990,467.819366 
	C738.656372,464.990875 738.708191,459.266876 740.585144,456.846619 
	C751.693665,442.522949 758.468628,426.307922 763.612244,408.451782 
	C764.573853,409.834442 765.396973,410.756256 765.929443,411.823151 
	C773.349976,426.693146 776.589905,442.455231 775.958679,459.045288 
	C775.736511,464.884857 773.137390,469.433624 767.898743,473.788574 
	C767.898743,467.948578 767.898743,462.817230 767.898743,457.685883 
	C767.483948,457.646240 767.069153,457.606628 766.654358,457.567017 
	C766.322937,458.794250 765.991455,460.021484 765.512207,461.620056 
z"/>
<path fill="#F9F9F8" opacity="1.000000" stroke="none" 
	d="
M652.376831,454.499390 
	C655.450806,446.283356 658.423889,438.478516 661.552917,430.264160 
	C668.547913,441.542877 674.999268,451.508301 680.864380,461.807648 
	C681.910583,463.644836 681.459595,467.637268 680.085327,469.299866 
	C676.339294,473.831390 671.729248,477.648712 666.118225,483.039673 
	C662.988281,475.587189 660.487732,469.633331 657.844849,463.340515 
	C657.607239,466.465332 657.372803,469.548157 657.122620,472.838318 
	C649.849182,468.266907 651.655640,461.426025 652.376831,454.499390 
z"/>
<path fill="#F9F9F8" opacity="1.000000" stroke="none" 
	d="
M723.205811,444.843079 
	C724.447388,451.205139 726.249756,457.170929 726.445251,463.188965 
	C726.555298,466.575684 724.013794,470.048584 722.666870,473.482635 
	C722.069702,473.303131 721.472595,473.123627 720.875427,472.944122 
	C720.875427,469.770782 720.875427,466.597443 720.875427,463.424133 
	C720.650879,463.384460 720.426270,463.344788 720.201721,463.305115 
	C717.688965,469.334167 715.176208,475.363190 712.160461,482.599182 
	C706.854309,477.723907 702.500977,473.971924 698.447205,469.920166 
	C695.267944,466.742462 695.719543,463.382721 698.194275,459.642609 
	C704.194519,450.574463 709.840088,441.271576 716.022400,431.436737 
	C718.224731,435.495087 720.659607,439.981903 723.205811,444.843079 
z"/>
<path fill="#F1F2F1" opacity="1.000000" stroke="none" 
	d="
M856.471313,504.633606 
	C855.677185,505.271759 855.156860,505.666901 853.494446,506.929443 
	C854.340881,504.735321 854.623901,503.638397 855.155762,502.679443 
	C860.060913,493.835510 863.292053,484.847443 862.213745,474.239258 
	C861.766785,469.842224 865.067932,465.064270 866.664490,460.459534 
	C867.062561,460.541565 867.460632,460.623596 867.858643,460.705597 
	C869.297058,466.927582 871.460876,473.098846 871.900574,479.390625 
	C872.162537,483.139191 870.458496,487.567078 868.314026,490.815338 
	C865.062866,495.739929 860.659180,499.903625 856.471313,504.633606 
z"/>
<path fill="#F1F2F1" opacity="1.000000" stroke="none" 
	d="
M517.940002,501.078552 
	C516.238525,499.224609 514.684082,497.710754 513.341125,496.028107 
	C507.375610,488.554108 503.878448,480.563232 507.652618,470.795654 
	C508.861694,467.666534 509.321228,464.247772 510.424438,459.729950 
	C513.562988,466.763580 517.811707,471.811554 516.176941,479.263275 
	C514.609436,486.408722 518.160522,492.853668 521.057312,499.197021 
	C522.051208,501.373383 523.171509,503.492035 523.408508,506.261139 
	C521.667114,504.621063 519.925781,502.980988 517.940002,501.078552 
z"/>
<path fill="#F8F8F6" opacity="1.000000" stroke="none" 
	d="
M849.093872,488.057861 
	C849.050232,487.850708 848.952942,487.628784 848.906433,487.396667 
	C848.898621,487.358185 849.112122,487.275299 849.223328,487.212952 
	C849.314148,487.404602 849.404907,487.596252 849.242554,487.890869 
	C848.989319,487.993866 849.057251,488.039642 849.093872,488.057861 
z"/>
<path fill="#010101" opacity="1.000000" stroke="none" 
	d="
M657.274170,218.982483 
	C678.628845,218.887375 699.580200,218.286133 720.484558,219.021606 
	C730.929199,219.389053 737.463867,227.081711 738.848267,237.565201 
	C739.369446,241.511337 739.479309,245.534012 739.486389,249.522324 
	C739.547852,284.153931 739.590454,318.785767 739.493835,353.417145 
	C739.482788,357.370697 738.916870,361.398895 738.026611,365.258301 
	C736.019226,373.959900 729.572815,380.512878 720.735352,380.826202 
	C700.811462,381.532501 680.827698,381.999817 660.920532,381.223328 
	C647.531433,380.701050 641.991272,374.408142 639.481262,361.127350 
	C639.112244,359.174500 638.851746,357.166321 638.851501,355.183716 
	C638.846802,318.221069 638.742493,281.257385 638.994202,244.296234 
	C639.094055,229.629196 644.868225,222.015518 657.274170,218.982483 
z"/>
<path fill="#020202" opacity="1.000000" stroke="none" 
	d="
M561.283325,432.334534 
	C561.589478,432.346649 561.657532,432.570892 561.725525,432.795166 
	C561.498718,432.712341 561.271973,432.629486 561.283325,432.334534 
z"/>
</svg>